<?xml version="1.0" encoding="UTF-8" standalone="no"?>
<svg
   width="269.8638"
   height="222.66438"
   viewBox="0 0 26.98638 22.266438"
   version="1.1"
   id="svg44"
   sodipodi:docname="logo.svg"
   inkscape:version="1.2.1 (9c6d41e410, 2022-07-14, custom)"
   inkscape:export-filename="logo.png"
   inkscape:export-xdpi="96"
   inkscape:export-ydpi="96"
   xmlns:inkscape="http://www.inkscape.org/namespaces/inkscape"
   xmlns:sodipodi="http://sodipodi.sourceforge.net/DTD/sodipodi-0.dtd"
   xmlns="http://www.w3.org/2000/svg"
   xmlns:svg="http://www.w3.org/2000/svg"
   xmlns:rdf="http://www.w3.org/1999/02/22-rdf-syntax-ns#"
   xmlns:cc="http://creativecommons.org/ns#"
   xmlns:dc="http://purl.org/dc/elements/1.1/">
  <sodipodi:namedview
     id="namedview46"
     pagecolor="#ffffff"
     bordercolor="#000000"
     borderopacity="0.25"
     inkscape:showpageshadow="2"
     inkscape:pageopacity="0.0"
     inkscape:pagecheckerboard="0"
     inkscape:deskcolor="#d1d1d1"
     showgrid="false"
     inkscape:zoom="8.0234375"
     inkscape:cx="-3.8636806"
     inkscape:cy="19.87926"
     inkscape:window-width="2166"
     inkscape:window-height="1205"
     inkscape:window-x="179"
     inkscape:window-y="63"
     inkscape:window-maximized="0"
     inkscape:current-layer="svg44" />
  <defs
     id="defs22">
    <linearGradient
       id="a"
       x1="9.9549999"
       y1="9.0959997"
       x2="16.68"
       y2="23.323999"
       gradientTransform="matrix(0.79004588,0,0,-0.79004588,-1.6501764,23.915919)"
       gradientUnits="userSpaceOnUse">
      <stop
         offset="0"
         stop-color="#1011a1"
         id="stop2" />
      <stop
         offset="1"
         stop-color="#6969e1"
         id="stop4" />
    </linearGradient>
    <linearGradient
       id="b"
       x1="16.231001"
       y1="19.655001"
       x2="25.618"
       y2="3.7820001"
       gradientTransform="matrix(0.79004588,0,0,-0.79004588,-1.6501764,23.915919)"
       gradientUnits="userSpaceOnUse">
      <stop
         offset="0"
         stop-color="#b40e0e"
         id="stop7" />
      <stop
         offset="1"
         stop-color="#ff5959"
         id="stop9" />
    </linearGradient>
    <linearGradient
       id="c"
       x1="21.663"
       y1="4.823"
       x2="8.3809996"
       y2="5.9380002"
       gradientTransform="matrix(0.79004588,0,0,-0.79004588,-1.6501764,23.915919)"
       gradientUnits="userSpaceOnUse">
      <stop
         offset="0"
         stop-color="#01a300"
         id="stop12" />
      <stop
         offset="1"
         stop-color="#01df00"
         id="stop14" />
    </linearGradient>
    <linearGradient
       id="d"
       x1="14.643"
       y1="8.368"
       x2="14.472"
       y2="14.145"
       gradientTransform="matrix(0.79004588,0,0,-0.79004588,-1.6501764,23.915919)"
       gradientUnits="userSpaceOnUse">
      <stop
         offset="0"
         stop-color="#848484"
         id="stop17" />
      <stop
         offset="1"
         stop-color="#d2d2d2"
         id="stop19" />
    </linearGradient>
  </defs>
  <title
     id="title24">file_type_cmake</title>
  <path
     d="M 11.983645,12.001238 0.12426662,22.137526 10.985818,0.4381257 Z"
     style="fill:url(#a);stroke-width:0.790046"
     id="path26" />
  <path
     d="m 0.13690732,22.152537 -0.030022,-0.0237 10.89315268,-21.7618144 0.0063,0.069524 0.997828,11.5733824 -0.0079,0.0063 z M 10.972387,0.5100199 0.18589012,22.058522 11.962314,11.992547 Z"
     id="path28"
     style="stroke-width:0.790046" />
  <path
     d="M 12.532727,18.331085 10.990558,0.4357556 21.867119,22.139106 Z"
     style="fill:url(#b);stroke-width:0.790046"
     id="path30" />
  <path
     d="m 21.907412,22.177818 -0.04819,-0.01975 -9.344663,-3.813551 v -0.01185 L 10.97081,0.4373376 11.00794,0.4270666 Z m -9.355724,-3.860954 9.274349,3.78195 L 11.018999,0.5368814 Z"
     id="path32"
     style="stroke-width:0.790046" />
  <path
     d="M 7.1667359,16.089725 21.87818,22.136736 H 0.12742672 Z"
     style="fill:url(#c);stroke-width:0.790046"
     id="path34" />
  <path
     d="M 21.87818,22.156487 H 0.07449372 l 0.040292,-0.03476 7.04800018,-6.055701 0.01106,0.0047 14.7122351,6.047801 z M 0.18035982,22.116987 H 21.777844 L 7.1706859,16.112636 Z"
     id="path36"
     style="stroke-width:0.790046" />
  <path
     d="m 7.1896469,16.103946 4.7868881,-4.082957 0.666009,6.304566 z"
     style="fill:url(#d);stroke-width:0.790046"
     id="path38" />
  <path
     d="m 12.688366,18.385598 -0.06083,-0.02528 -5.5129401,-2.245311 4.8935441,-4.173812 0.0079,0.07426 z m -5.4236651,-2.291133 5.3312301,2.171836 -0.650998,-6.162358 z"
     id="path40"
     style="stroke-width:0.790046" />
  <path
     d="M 21.814186,22.265514 H 0.15507832 a 0.17460014,0.17460014 0 0 1 -0.1437883,-0.06952 0.17539019,0.17539019 0 0 1 0.017381,-0.15801 L 10.883112,0.3622813 a 0.13351775,0.13351775 0 0 1 0.110606,-0.0790046 v 0 a 0.12166707,0.12166707 0 0 1 0.102706,0.067154 l 10.8497,21.6749093 a 0.18803092,0.18803092 0 0 1 0.0158,0.17855 0.16669968,0.16669968 0 0 1 -0.147739,0.06162 z M 0.11320592,22.139106 a 0.38238221,0.38238221 0 0 0 0.045033,0.0087 H 21.805496 l 0.05767,-0.0071 a 0.17460014,0.17460014 0 0 0 -0.02212,-0.06083 L 10.990558,0.4104741 v 0.00948 L 0.13611722,22.086173 a 0.2204228,0.2204228 0 0 0 -0.019751,0.05293 z"
     id="path42"
     style="stroke-width:0.790046" />
  <g
     id="g281"
     transform="matrix(0.04275991,0,0,0.04275991,16.039844,-0.00206538)">
    <polygon
       fill="#ffffff"
       points="256,72.45283 256,217.31019 128,289.71472 0,217.31019 0,72.45283 128,0.048301887 "
       id="polygon275" />
    <path
       d="m 233.15321,212.28679 -100.90264,57.14114 v -44.43774 l 62.88905,-34.63245 z m 6.90717,-6.23094 V 86.653585 l -36.90264,21.301135 v 76.8 z M 22.460377,212.28679 123.36302,269.37962 V 224.94189 L 60.473962,190.35774 Z m -6.90717,-6.23094 V 86.653585 l 36.902642,21.301135 v 76.8 z M 19.852076,78.925283 123.36302,20.383396 V 63.372075 L 57.044528,99.84 l -0.531321,0.28981 z m 215.861134,0 -103.46264,-58.541887 v 42.988679 l 66.27018,36.516227 0.53132,0.289808 z"
       fill="#8ed6fb"
       id="path277"
       style="fill:#75b1e1;fill-opacity:1" />
    <path
       d="M 123.36302,214.84679 61.343396,180.69736 v -67.57434 l 62.019624,35.7917 z m 8.88755,0 62.01962,-34.10113 v -67.62264 l -62.01962,35.7917 z M 65.497359,105.29811 127.80679,71.052075 l 62.26113,34.246035 -62.26113,35.93661 z"
       fill="#1c78c0"
       id="path279"
       style="fill:#148de0;fill-opacity:1" />
  </g>
  <metadata
     id="metadata546">
    <rdf:RDF>
      <cc:Work
         rdf:about="">
        <dc:title>file_type_cmake</dc:title>
      </cc:Work>
    </rdf:RDF>
  </metadata>
</svg>
